<svg xmlns="http://www.w3.org/2000/svg" viewBox="0 0 1487.56 5208"><defs><style>.cls-1{fill:#9ec7e0;}.cls-2,.cls-3,.cls-5,.cls-6,.cls-7,.cls-8{fill:none;stroke-linecap:round;stroke-linejoin:round;stroke-width:2px;}.cls-2,.cls-3,.cls-5,.cls-7,.cls-8{stroke:#809fab;}.cls-3{stroke-dasharray:12.27 12.27;}.cls-4{fill:#fff;}.cls-5,.cls-6{stroke-dasharray:8;}.cls-6{stroke:#1691c4;}.cls-7{stroke-dasharray:15.23 15.23;}.cls-8{stroke-dasharray:13.96 13.96;}</style></defs><g id="Слой_2" data-name="Слой 2"><g id="Шар_1" data-name="Шар 1"><rect class="cls-1" x="72.75" width="1414.81" height="5208"/><path class="cls-2" d="M1346.47,2630.67a33.67,33.67,0,0,1-.71,5.95"/><path class="cls-3" d="M1341.67,2648.14c-5,9.25-15.14,18.87-35.86,19.63"/><path class="cls-2" d="M1299.67,2667.75c-1.91-.09-3.91-.24-6-.47"/><path class="cls-4" d="M1243.46,2677s-26.14,26.9-5.21,59c4.62,7.07,14.87,17.61,43.12,15.7,0,0,8.9,21.83,46.83,22.85s41.77-17.36,41.77-17.36,8.93,17.36,44.68,15.83,39.57-30.89,39.57-30.89,29.87-2.3,31.41-26.56-38.56-34-38.56-34-10-53.38-59.74-54.9-84.26,34.33-84.26,34.33l-24.51-6.74Z"/><path class="cls-4" d="M1229.94,2566.93s-5.57-76.94-70.62-71.74-66.53,71.74-66.53,71.74-1.48,25.27,4.46,38.65c0,0-13.75-16.35-32-14.86s-34.2,21.93-32.34,44.23,17.84,43.11,49.06,42.74,34.94-11.52,51.67-10,38.28,21.55,78.42,20.44,47.58-22.67,61-22.67,16.35,13.38,40.88,10.77,43.49-21.55,39-46.46-33.82-40.88-65.42-30.47c0,0,10.41-42.38-18.21-49.81C1237.15,2541.1,1229.94,2566.93,1229.94,2566.93Z"/><path class="cls-5" d="M1333.22,2608.81c.1.54,15.49,12.51,15.27,35.65"/><path class="cls-6" d="M1152.63,2505.23c-1.67.37-39.4,17.1-41.07,46.09"/><path class="cls-6" d="M1135.16,2505.23s-37.54,26.57-33.82,63.37"/><path class="cls-6" d="M1060.83,2595.36c-.93.37-19.7,9.11-20.63,23.42"/><path class="cls-6" d="M1085.23,2602.73s-27.13-3.59-32.58,13.26"/><path class="cls-5" d="M1284.35,2662.63s37.53,25.51,60.9-8.46"/><path class="cls-5" d="M1185.93,2677.41c5.1,2.55,53.1,10.72,78.12-18.9"/><path class="cls-2" d="M301.66,4609.21a28.28,28.28,0,0,1-.83,5.93"/><path class="cls-7" d="M294,4628.54c-4.14,4.54-10.48,8.4-20.21,9.55"/><path class="cls-2" d="M266.13,4638.41q-2.83-.06-6-.4"/><path class="cls-4" d="M220.64,4645.64s-20.56,21.16-4.09,46.39c3.63,5.57,11.69,13.86,33.91,12.35,0,0,7,17.17,36.83,18s32.85-13.65,32.85-13.65,7,13.65,35.15,12.45,31.12-24.3,31.12-24.3,23.5-1.81,24.7-20.89-30.32-26.7-30.32-26.7-7.83-42-47-43.19-66.27,27-66.27,27l-19.28-5.3Z"/><path class="cls-4" d="M210,4559.08s-4.38-60.52-55.54-56.43-52.33,56.43-52.33,56.43-1.17,19.87,3.5,30.4c0,0-10.81-12.86-25.14-11.69S53.61,4595,55.07,4612.57s14,33.92,38.59,33.62,27.48-9.06,40.63-7.89,30.11,17,61.69,16.08,37.42-17.83,47.94-17.83,12.87,10.52,32.16,8.47,34.2-17,30.7-36.54-26.61-32.16-51.46-24c0,0,8.19-33.33-14.32-39.17C215.67,4538.76,210,4559.08,210,4559.08Z"/><path class="cls-5" d="M291.24,4592a37.89,37.89,0,0,1,12,28"/><path class="cls-6" d="M149.2,4510.55c-1.31.29-31,13.44-32.3,36.25"/><path class="cls-6" d="M135.46,4510.55s-29.52,20.9-26.6,49.84"/><path class="cls-6" d="M77,4581.44c-.73.29-15.49,7.16-16.22,18.42"/><path class="cls-6" d="M96.19,4587.24s-21.34-2.83-25.63,10.42"/><path class="cls-5" d="M252.8,4634.35s29.52,20.06,47.9-6.65"/><path class="cls-5" d="M175.39,4646c4,2,41.77,8.44,61.45-14.86"/><path class="cls-4" d="M1010.22,691.91s4.1-56.53,51.89-52.71S1111,691.91,1111,691.91s1.09,18.57-3.28,28.4c0,0,10.11-12,23.49-10.92s25.13,16.11,23.76,32.5-13.11,31.68-36,31.41-25.67-8.47-38-7.38-28.13,15.84-57.63,15-35-16.66-44.79-16.66-12,9.83-30,7.92-32-15.84-28.68-34.14,24.86-30,48.07-22.39c0,0-7.65-31.13,13.38-36.6C1004.93,672.93,1010.22,691.91,1010.22,691.91Z"/><path class="cls-2" d="M924.6,738.75a26.79,26.79,0,0,0,.87,5.92"/><path class="cls-8" d="M931.9,756.9c3.82,4.16,9.65,7.69,18.53,8.79"/><path class="cls-2" d="M957.4,766c1.88,0,3.88-.16,6-.39"/><path class="cls-5" d="M940,752.4s5.06,10.93,28.68,6.42"/><path class="cls-5" d="M986.33,757.73c.54.95,8.74,18.57,47.52,15.7"/><path class="cls-5" d="M999.16,760.6a35.37,35.37,0,0,0,27.86,6"/><path class="cls-6" d="M1067,646.57c1.23.28,29,12.57,30.18,33.87"/><path class="cls-6" d="M1079.87,646.57s27.58,19.53,24.85,46.57"/><path class="cls-6" d="M1134.49,712.8c.68.28,14.47,6.69,15.16,17.21"/><path class="cls-6" d="M1116.55,718.22s19.94-2.64,24,9.74"/><path class="cls-4" d="M213.06,720.26s-4.1-56.53-51.89-52.71-48.89,52.71-48.89,52.71-1.09,18.57,3.28,28.4c0,0-10.11-12-23.49-10.92S67,753.85,68.31,770.24s13.11,31.68,36.05,31.41,25.67-8.47,38-7.38,28.13,15.84,57.63,15,35-16.66,44.79-16.66,12,9.84,30,7.93,32-15.85,28.68-34.14-24.86-30-48.07-22.4c0,0,7.65-31.13-13.38-36.59C218.35,701.28,213.06,720.26,213.06,720.26Z"/><path class="cls-2" d="M298.68,767.1a26.79,26.79,0,0,1-.87,5.92"/><path class="cls-8" d="M291.38,785.25c-3.82,4.16-9.64,7.69-18.52,8.79"/><path class="cls-2" d="M265.89,794.39c-1.89,0-3.88-.16-6-.39"/><path class="cls-5" d="M283.25,780.75s-5.06,10.93-28.68,6.42"/><path class="cls-5" d="M237,786.08c-.55,1-8.74,18.57-47.53,15.7"/><path class="cls-5" d="M224.12,789a35.4,35.4,0,0,1-27.86,6"/><path class="cls-6" d="M156.25,674.93c-1.23.27-28.95,12.56-30.18,33.86"/><path class="cls-6" d="M143.42,674.93s-27.59,19.52-24.86,46.56"/><path class="cls-6" d="M88.79,741.15c-.68.28-14.47,6.7-15.15,17.21"/><path class="cls-6" d="M106.73,746.57s-19.94-2.64-23.94,9.74"/><path class="cls-4" d="M1107.09,1558.17s-4.1-56.53-51.89-52.71-48.89,52.71-48.89,52.71-1.09,18.57,3.28,28.4c0,0-10.11-12-23.49-10.92s-25.12,16.11-23.76,32.5,13.11,31.68,36,31.41,25.67-8.47,38-7.38,28.13,15.84,57.63,15,35-16.66,44.79-16.66,12,9.84,30,7.92,32-15.84,28.68-34.13-24.86-30-48.07-22.4c0,0,7.65-31.13-13.38-36.6C1112.38,1539.19,1107.09,1558.17,1107.09,1558.17Z"/><path class="cls-2" d="M1192.71,1605a26.79,26.79,0,0,1-.87,5.92"/><path class="cls-8" d="M1185.41,1623.16c-3.82,4.16-9.65,7.69-18.52,8.79"/><path class="cls-2" d="M1159.91,1632.3c-1.88,0-3.88-.16-6-.39"/><path class="cls-5" d="M1177.28,1618.66s-5.06,10.93-28.68,6.42"/><path class="cls-5" d="M1131,1624c-.55,1-8.74,18.57-47.53,15.7"/><path class="cls-5" d="M1118.15,1626.86a35.4,35.4,0,0,1-27.86,6"/><path class="cls-6" d="M1050.28,1512.83c-1.23.28-28.95,12.57-30.18,33.87"/><path class="cls-6" d="M1037.45,1512.83s-27.59,19.53-24.86,46.57"/><path class="cls-6" d="M982.82,1579.06c-.68.28-14.47,6.69-15.15,17.21"/><path class="cls-6" d="M1000.76,1584.48s-19.94-2.64-23.94,9.74"/><path class="cls-4" d="M120.59,1558.17s4.1-56.53,51.89-52.71,48.89,52.71,48.89,52.71,1.09,18.57-3.28,28.4c0,0,10.11-12,23.49-10.92s25.13,16.11,23.76,32.5-13.11,31.68-36,31.41-25.67-8.47-38-7.38-28.13,15.84-57.63,15-35-16.66-44.79-16.66-12,9.84-30,7.92-31.95-15.84-28.68-34.13,24.86-30,48.07-22.4c0,0-7.65-31.13,13.38-36.6C115.3,1539.19,120.59,1558.17,120.59,1558.17Z"/><path class="cls-2" d="M35,1605a26.79,26.79,0,0,0,.87,5.92"/><path class="cls-8" d="M42.27,1623.16c3.82,4.16,9.65,7.69,18.53,8.79"/><path class="cls-2" d="M67.77,1632.3c1.88,0,3.88-.16,6-.39"/><path class="cls-5" d="M50.4,1618.66s5.06,10.93,28.68,6.42"/><path class="cls-5" d="M96.7,1624c.54,1,8.74,18.57,47.52,15.7"/><path class="cls-5" d="M109.53,1626.86a35.4,35.4,0,0,0,27.86,6"/><path class="cls-6" d="M177.4,1512.83c1.23.28,28.95,12.57,30.18,33.87"/><path class="cls-6" d="M190.24,1512.83s27.58,19.53,24.85,46.57"/><path class="cls-6" d="M244.86,1579.06c.68.28,14.47,6.69,15.15,17.21"/><path class="cls-6" d="M226.92,1584.48s19.94-2.64,24,9.74"/><path class="cls-4" d="M90.88,2580.55s4.1-56.54,51.89-52.71,48.89,52.71,48.89,52.71,1.09,18.57-3.28,28.4c0,0,10.1-12,23.49-10.92s25.12,16.11,23.76,32.5-13.11,31.68-36,31.4-25.68-8.46-38-7.37-28.13,15.84-57.62,15-35-16.66-44.79-16.66-12,9.83-30,7.92S-2.8,2645,.48,2626.7s24.85-30,48.07-22.39c0,0-7.65-31.14,13.38-36.6C85.59,2561.57,90.88,2580.55,90.88,2580.55Z"/><path class="cls-2" d="M5.26,2627.39a26.79,26.79,0,0,0,.87,5.92"/><path class="cls-8" d="M12.55,2645.54c3.83,4.16,9.65,7.69,18.53,8.79"/><path class="cls-2" d="M38.05,2654.67c1.89,0,3.88-.15,6-.38"/><path class="cls-5" d="M20.69,2641s5,10.94,28.68,6.43"/><path class="cls-5" d="M67,2646.37c.55,1,8.74,18.57,47.52,15.7"/><path class="cls-5" d="M79.82,2649.23a35.34,35.34,0,0,0,27.85,6"/><path class="cls-6" d="M147.69,2535.21c1.22.28,28.94,12.57,30.17,33.87"/><path class="cls-6" d="M160.52,2535.21s27.59,19.53,24.85,46.57"/><path class="cls-6" d="M215.14,2601.44c.69.27,14.48,6.69,15.16,17.21"/><path class="cls-6" d="M197.21,2606.86s19.94-2.64,23.94,9.74"/><path class="cls-4" d="M1220.27,2881.15s4.1-56.53,51.89-52.7,48.89,52.7,48.89,52.7,1.09,18.58-3.28,28.41c0,0,10.1-12,23.49-10.93s25.12,16.12,23.76,32.5-13.11,31.68-36,31.41-25.68-8.47-38-7.37-28.13,15.84-57.62,15-35-16.66-44.79-16.66-12,9.83-30,7.92-32-15.84-28.68-34.14,24.85-30,48.07-22.39c0,0-7.65-31.14,13.38-36.6C1215,2862.17,1220.27,2881.15,1220.27,2881.15Z"/><path class="cls-2" d="M1134.65,2928a26.91,26.91,0,0,0,.87,5.93"/><path class="cls-8" d="M1141.94,2946.15c3.83,4.15,9.65,7.68,18.53,8.78"/><path class="cls-2" d="M1167.44,2955.28c1.89,0,3.88-.16,6-.39"/><path class="cls-5" d="M1150.08,2941.64s5.05,10.93,28.68,6.43"/><path class="cls-5" d="M1196.37,2947c.55,1,8.74,18.58,47.52,15.71"/><path class="cls-5" d="M1209.21,2949.84a35.39,35.39,0,0,0,27.85,6"/><path class="cls-6" d="M1277.08,2835.82c1.22.27,28.94,12.56,30.17,33.86"/><path class="cls-6" d="M1289.91,2835.82s27.58,19.53,24.85,46.56"/><path class="cls-6" d="M1344.53,2902.05c.69.27,14.48,6.69,15.16,17.2"/><path class="cls-6" d="M1326.6,2907.46s19.94-2.64,23.94,9.75"/></g></g></svg>