<svg xmlns="http://www.w3.org/2000/svg" viewBox="0 0 1406.31 1006.39"><defs><style>.cls-1{fill:#fff;}</style></defs><g id="Слой_2" data-name="Слой 2"><g id="Шар_1" data-name="Шар 1"><path class="cls-1" d="M1401.13,18.17c-56.66,52.36-142.64,72.16-216.36,48.14A134.46,134.46,0,0,1,1146.47,47c-10.87-8-20.61-17.43-32-24.78-34.84-22.57-82.07-25.13-122.08-20-43.8,5.6-88.26,23-116.22,58.58C850.53,93.52,839.58,140.66,849,181.18c9.52,40.79,43.24,71,58,109.62,7.52,19.75,11.62,44.57,7.26,65.44-4.71,22.51-23.24,42-44.18,50.87-34.22,14.51-68.07-7.87-96.65-24.77-20-11.86-40.62-22.45-64.29-15.66-20.63,5.92-32.9,23.39-31,44.89,1.53,17.28,9.58,33.66,18.51,48.25,4.84,7.92,9.51,15.39,16.31,21.57a380.72,380.72,0,0,1,41.17,43.81c16.72,20.93,32.52,45,38,71.65,5.53,26.86-4.64,52.52-27.73,67.77-17.09,11.29-38.86,14.54-58.87,16-28.44,2.12-57.14.34-85.49-2.34-35-3.31-69.78-8.37-104.49-13.76C440,652.82,364.79,639.07,288.84,630.38c-35-4-70.14-7-105.35-7.26-34.05-.27-69.87.75-102,13.18C54.31,646.83,31,665.52,16.79,691.17,4.92,712.57-.46,737.36,0,761.75c.82,40.47,19.27,79.94,47,108.89,27,28.15,61.38,48.67,96.3,65.37a604.26,604.26,0,0,0,95.47,35.75c67.18,19.11,137,28.87,206.6,32.75a1233,1233,0,0,0,222.5-7.85c69.35-8.76,138.36-23.19,204.39-46.38,55.24-19.39,109.8-45,155.13-82.57,19.11-15.85,36.37-34,50-54.82,11.7-17.81,24.14-35,39.64-49.76,40.85-38.84,96.26-52,151.27-53.19,44.22-1,88.39,4.75,131.78,12.81,3.77.71,5.39-5.08,1.59-5.78-72.07-13.4-153-23.56-223.7,1.95-42.83,15.44-75.14,45.31-100.27,82.59-13.72,20.35-28.29,38.84-46.73,55.22-20.62,18.31-43.74,33.67-67.84,47-56.6,31.29-118.89,51.84-181.66,66.61-71.24,16.77-144.26,25.94-217.34,29-73.26,3-147,0-219.55-11-66.86-10.14-133.38-26.92-194.77-55.75-55-25.85-112.7-62.67-134.14-122.65C.92,768.38,2.45,721.16,28.28,684.07c40.18-57.69,119.1-57,182.09-54.23,74.78,3.33,149,15.52,222.77,27.49,69.43,11.27,139.08,24,209.35,28.81,26.26,1.78,52.91,2.48,79-1.2,19.81-2.79,39.36-8.46,54.64-21.9,44.81-39.38,15.67-98.73-14.08-137.33a377.86,377.86,0,0,0-42.55-46.41,72.26,72.26,0,0,1-12.36-14.18c-10.74-16-21.51-34.55-23.09-54.21-1.82-22.64,14-37.92,35.73-40.22,27-2.86,50.57,17.56,72.85,29.83,29.77,16.4,63.38,25.52,93.48,4.45,16.94-11.86,30.6-28.47,34.29-49.2,3.55-19.95.21-42.18-5.84-61.36-12.39-39.28-45-68.74-57.8-107.82-13.76-42.07-.23-95.35,29-128,32.57-36.33,83.51-51,130.94-52.27,23.68-.62,48.26,1.66,70.76,9.42,14.51,5,27.06,13.1,38.87,22.77,10.14,8.32,20.12,16.77,31.74,23a164.61,164.61,0,0,0,40.8,14.91c34.35,7.94,70.72,7.42,105-.51a223.54,223.54,0,0,0,101.42-53.54c2.85-2.63-1.41-6.86-4.24-4.24Z"/></g></g></svg>